HIERARCHY
ROOT Hips
{
	OFFSET	0.00	0.00	0.00
	CHANNELS 6 Xposition Yposition Zposition Zrotation Xrotation Yrotation
	JOINT LeftHip
	{
		OFFSET	 3.430000	 0.000000	 0.000000
		CHANNELS 3 Zrotation Xrotation Yrotation
		JOINT LeftKnee
		{
			OFFSET	 0.000000	-18.469999	 0.000000
			CHANNELS 3 Zrotation Xrotation Yrotation
			JOINT LeftAnkle
			{
				OFFSET	 0.000000	-17.950001	 0.000000
				CHANNELS 3 Zrotation Xrotation Yrotation
				End Site 
				{
					OFFSET	 0.000000	-3.119996	 0.000000
				}
			}
		}
	}
	JOINT RightHip
	{
		OFFSET	-3.430000	 0.000000	 0.000000
		CHANNELS 3 Zrotation Xrotation Yrotation
		JOINT RightKnee
		{
			OFFSET	 0.000000	-18.809999	 0.000000
			CHANNELS 3 Zrotation Xrotation Yrotation
			JOINT RightAnkle
			{
				OFFSET	 0.000000	-17.570000	 0.000000
				CHANNELS 3 Zrotation Xrotation Yrotation
				End Site 
				{
					OFFSET	 0.000000	-3.250000	 0.000000
				}
			}
		}
	}
	JOINT Chest
	{
		OFFSET	 0.000000	 4.570000	 0.000000
		CHANNELS 3 Zrotation Xrotation Yrotation
		JOINT LeftCollar
		{
			OFFSET	 1.060000	 15.330000	 1.760000
			CHANNELS 3 Zrotation Xrotation Yrotation
			JOINT LeftShoulder
			{
				OFFSET	 5.810000	 0.000000	 0.000000
				CHANNELS 3 Zrotation Xrotation Yrotation
				JOINT LeftElbow
				{
					OFFSET	 0.000000	-12.080000	 0.000000
					CHANNELS 3 Zrotation Xrotation Yrotation
					JOINT LeftWrist
					{
						OFFSET	 0.000000	-9.820000	 0.000000
						CHANNELS 3 Zrotation Xrotation Yrotation
						End Site 
						{
							OFFSET	 0.000000	-7.369996	 0.000000
						}
					}
				}
			}
		}
		JOINT RightCollar
		{
			OFFSET	-1.060000	 15.330000	 1.760000
			CHANNELS 3 Zrotation Xrotation Yrotation
			JOINT RightShoulder
			{
				OFFSET	-6.060000	 0.000000	 0.000000
				CHANNELS 3 Zrotation Xrotation Yrotation
				JOINT RightElbow
				{
					OFFSET	 0.000000	-11.900000	 0.000000
					CHANNELS 3 Zrotation Xrotation Yrotation
					JOINT RightWrist
					{
						OFFSET	 0.000000	-9.520000	 0.000000
						CHANNELS 3 Zrotation Xrotation Yrotation
						End Site 
						{
							OFFSET	 0.000000	-7.140012	 0.000000
						}
					}
				}
			}
		}
		JOINT Neck
		{
			OFFSET	 0.000000	 17.620001	 0.000000
			CHANNELS 3 Zrotation Xrotation Yrotation
			JOINT Head
			{
				OFFSET	 0.000000	 5.190000	 0.000000
				CHANNELS 3 Zrotation Xrotation Yrotation
				End Site 
				{
					OFFSET	 0.000000	 4.140008	 0.000000
				}
			}
		}
	}
}

MOTION
Frames: 25
Frame Time: 0.033333
-35.5279 -4.274 -35.6194 -24.5284 -1.99087 81.8865 -4.32196 -36.9641 6.1209 0.0449563 49.4087 -4.10064 -1.53182 -8.83102 10.1515 -8.52324 -33.4218 -22.2331 -11.4773 43.6393 11.542 13.553 -29.9287 7.96908 19.5545 37.4492 -5.83828 0 0 0 27.4932 -3.87969 2.18301 -18.1906 -23.1938 -12.4262 32.0565 -14.5263 1.16205 0 0 0 -44.7211 -1.1345 -14.2292 35.3868 -46.608 26.2879 -50.9032 -34.298 4.20545 0 0 0 -0.703303 -52.3039 35.6623 
-33.2428 -4.5578 -35.3934 -22.4145 -2.64646 86.0213 -4.82671 -44.4735 7.39532 0.0458107 46.5241 -4.08307 -3.22425 -8.97628 6.92694 -8.84987 -25.2085 -22.969 -12.3332 43.2387 12.4297 13.2756 -32.1341 7.20137 18.5988 36.6831 -2.31021 0 0 0 24.176 0.930971 4.76583 -20.4201 -25.0804 -13.1386 35.2521 -16.2266 1.88075 0 0 0 -42.8487 -0.570974 -12.9185 35.6223 -47.0895 26.7208 -51.4663 -34.3815 3.93727 0 0 0 -2.6729 -53.2396 31.6413 
-30.6136 -4.8641 -35.1473 -19.71 -3.40299 91.1428 -5.25619 -51.1356 8.97914 0.47972 43.2252 -3.88754 -5.45838 -9.08472 3.76064 -8.03142 -15.9701 -23.683 -12.9161 42.1412 12.5084 12.5959 -32.1037 6.52694 17.8153 35.5385 1.72487 0 0 0 20.1678 4.71067 7.82078 -23.1329 -27.2779 -14.4322 38.1254 -18.2913 1.31485 0 0 0 -39.5574 -1.30424 -11.1453 34.3834 -46.9424 25.9201 -51.0173 -34.3017 3.91899 0 0 0 -5.46406 -53.6979 26.2564 
-27.8011 -5.1755 -34.9539 -16.8732 -4.16463 95.6724 -5.45917 -55.0331 10.1516 1.10709 40.2078 -3.87378 -6.03031 -6.95953 1.84379 -5.69468 -7.40619 -23.5288 -13.1105 41.1672 11.7796 11.2081 -28.6435 4.99394 17.198 33.3451 6.03661 0 0 0 15.782 5.94565 11.0481 -25.7542 -28.8587 -16.4257 39.3837 -20.4087 0.0301954 0 0 0 -35.0226 -3.20903 -9.59929 32.9954 -46.1426 25.0312 -48.7981 -34.6035 4.77459 0 0 0 -9.09399 -52.9845 19.5208 
-24.2327 -5.4593 -34.7681 -14.7677 -4.61434 100.285 -9.81789 -54.9039 6.90765 1.94759 37.3177 -3.7468 -4.34561 -4.34757 0.803211 -3.47401 0.828258 -25.2315 -14.6356 41.4832 11.8034 11.0549 -18.6929 4.18639 15.7976 28.101 9.17556 0 0 0 12.1809 5.50421 12.9923 -29.5867 -30.5742 -19.0333 38.9478 -21.8401 -2.34295 0 0 0 -30.051 -6.26267 -5.99229 31.879 -45.2974 24.8481 -45.8019 -33.9477 4.81391 0 0 0 -12.0942 -49.799 11.9159 
-20.5086 -5.6652 -34.5546 -12.3739 -4.91496 105.442 -14.4275 -52.468 2.65356 2.42651 35.5895 -4.00636 -2.42469 -1.98419 0.595257 -0.518733 7.4424 -27.6074 -16.6839 42.8232 11.5566 11.4968 -8.56501 4.79925 14.7388 22.4149 10.8712 0 0 0 9.30285 2.597 13.0821 -34.5121 -32.6101 -22.2088 36.9113 -22.6497 -5.7155 0 0 0 -25.9863 -11.7484 -0.977683 29.7742 -44.6741 23.5901 -44.518 -33.1714 4.11987 0 0 0 -13.3777 -45.9637 5.35856 
-16.8825 -5.8661 -34.3135 -8.90397 -4.96819 111.042 -18.2997 -48.0189 -1.38402 2.7094 34.7604 -4.37559 -0.182147 -0.553219 0.978946 3.09932 12.4009 -29.9797 -18.8195 44.6227 11.3005 11.7631 1.33807 5.64845 13.9567 17.0044 11.5093 0 0 0 7.38659 -2.86533 11.2923 -40.0041 -34.4699 -25.6815 34.9042 -22.9801 -9.01336 0 0 0 -22.6493 -18.7473 3.61429 27.1281 -44.1659 21.6 -44.8163 -31.8669 3.61363 0 0 0 -13.0052 -41.7065 0.0600083 
-13.1986 -5.8937 -33.9996 -4.6128 -4.50217 117.82 -20.3889 -41.7509 -4.42567 2.88062 34.6315 -4.50477 2.66073 -0.274267 0.88381 5.46723 12.6537 -29.9556 -21.5937 47.1101 11.5037 11.3873 11.8511 7.27641 13.3298 12.148 10.3278 0 0 0 6.16381 -14.2098 8.24123 -45.3237 -35.9966 -28.252 35.6523 -23.6566 -12.3932 0 0 0 -19.8873 -29.6054 4.61484 26.876 -44.4164 21.5603 -45.2366 -30.0966 3.41841 0 0 0 -11.9515 -38.0093 -4.04615 
-9.6303 -5.6627 -33.7008 -0.11476 -3.67702 124.646 -20.0695 -35.0572 -6.34602 2.94753 35.0037 -4.82061 5.91762 -0.16519 0.630203 5.92616 8.71731 -27.7868 -24.8943 51.3112 12.3069 9.65482 20.445 9.16471 12.254 7.6424 8.76435 0 0 0 4.51318 -28.6261 4.63885 -49.7916 -36.7977 -30.9521 35.6964 -24.3096 -14.694 0 0 0 -19.784 -43.1102 2.85244 27.167 -44.6932 20.9981 -45.6454 -28.812 3.38391 0 0 0 -10.3688 -34.7286 -7.75491 
-6.2603 -5.0725 -33.4572 2.99587 -3.18805 131.257 -17.6098 -27.99 -7.71941 2.75986 34.7468 -5.13685 8.88642 0.0811986 0.3405 5.14402 1.54169 -25.3453 -28.7787 57.02 14.357 7.7453 25.5112 10.3774 11.0067 3.59141 6.57126 0 0 0 2.09739 -45.1486 0.323139 -52.8433 -37.668 -32.7521 35.4763 -24.2848 -15.5424 0 0 0 -25.0432 -57.3683 -2.86583 27.9791 -45.4796 21.0724 -46.1461 -27.4627 2.3461 0 0 0 -8.4374 -31.9866 -10.7107 
-3.1465 -4.0254 -33.2739 5.66431 -2.52284 137.608 -14.303 -20.4133 -8.46717 3.34621 32.4742 -5.76004 10.3465 0.822371 -2.24133 3.50262 -6.92556 -24.4302 -34.5134 63.0702 18.6766 6.71042 27.4792 11.6905 9.5588 0.65969 3.60794 0 0 0 -2.83043 -61.8768 -7.47947 -53.9927 -38.9048 -32.723 34.9771 -23.6235 -15.9226 0 0 0 -43.3739 -71.1964 -19.8414 26.8267 -45.9138 19.9026 -47.3889 -24.4648 -1.32883 0 0 0 -6.5718 -30.366 -13.1684 
-0.5122 -2.3002 -33.2387 8.21464 -1.69813 143.544 -9.1591 -15.2844 -6.68197 3.31662 28.3194 -6.1202 6.63189 5.85745 -3.99238 2.45276 -15.0357 -23.8592 -38.9114 66.9931 22.7391 7.63707 24.9382 12.2389 9.47374 1.05318 0.307952 0 0 0 -18.8439 -78.4445 -27.4751 -50.0218 -38.5106 -30.3688 34.1813 -24.1063 -15.3548 0 0 0 -105.636 -74.6202 -79.1078 21.0644 -42.7744 15.501 -49.2455 -21.27 -6.6032 0 0 0 -6.03061 -31.0797 -15.7465 
1.9362 -0.3163 -33.3191 10.4934 -0.732376 148.999 -4.45194 -10.2052 -4.36905 3.27756 23.266 -6.00631 2.83468 11.4438 -5.24169 1.00182 -22.6344 -23.798 -43.3268 69.4469 27.6341 9.15635 23.4561 12.0478 9.92947 1.94747 -2.74258 0 0 0 -124.731 -82.3661 -138.313 -44.0015 -36.7626 -27.3617 34.4924 -24.8575 -13.8003 0 0 0 -139.087 -62.3376 -109.072 15.3209 -37.8929 11.3553 -49.3318 -17.6238 -12.565 0 0 0 -5.9773 -32.0756 -18.286 
4.7688 2.2426 -33.5953 12.5627 0.335981 155.875 0.829883 -5.36741 0.772688 2.97552 17.814 -5.54314 0.427301 18.5062 -6.61476 -1.57831 -26.3264 -25.0406 -41.2546 68.4809 26.6088 11.3546 23.8264 12.4225 9.68768 2.22641 -5.36616 0 0 0 -152.263 -68.2308 -173.156 -35.9154 -34.0888 -22.4876 34.4209 -25.6521 -10.9967 0 0 0 -150.202 -46.1502 -119.032 10.9125 -31.4378 8.56198 -47.4342 -14.5359 -19.8846 0 0 0 -6.42182 -33.104 -22.7891 
7.0817 4.6584 -33.9896 14.1482 1.15304 161.523 5.23791 -1.54147 6.48906 2.83826 12.5059 -5.43083 -2.36726 26.0687 -7.42888 -3.32162 -25.9275 -25.5215 -34.9859 66.172 21.8827 13.785 23.832 11.9001 9.22748 2.14407 -6.3985 0 0 0 -152.742 -57.7548 178.614 -28.3417 -31.3188 -18.7414 31.0448 -25.8667 -8.28816 0 0 0 -154.482 -34.1942 -120.826 5.56223 -23.804 4.60662 -44.5402 -12.4075 -25.594 0 0 0 -6.67236 -33.4471 -27.3496 
9.5377 7.2274 -34.5571 15.1804 2.87095 168.6 8.36737 2.31271 10.172 2.86596 7.31998 -5.37846 -6.57995 33.2164 -6.93032 -3.82772 -21.8532 -25.9348 -26.2669 61.3585 15.2596 15.8869 24.5699 10.5643 8.02484 2.06709 -8.30944 0 0 0 -149.321 -49.9701 174.962 -21.7007 -29.0899 -14.9523 28.3926 -25.5828 -6.92984 0 0 0 -155.604 -24.7538 -119.569 0.693505 -16.0216 1.7477 -40.6265 -10.5444 -31.9817 0 0 0 -6.87161 -32.9031 -32.0991 
12.2623 9.8918 -35.2553 14.862 5.05186 176.944 10.3375 5.59888 13.2036 2.6992 3.28709 -5.26769 -11.4144 39.7364 -5.73283 -1.50773 -15.6491 -24.8825 -19.2695 53.0881 10.3393 18.75 26.3051 7.26462 4.91662 1.71483 -9.7403 0 0 0 -146.487 -45.4778 172.244 -16.4464 -26.4485 -12.3504 27.1604 -25.9196 -5.18243 0 0 0 -155.646 -16.869 -117.794 -3.05255 -8.69828 -0.108751 -38.4868 -9.57854 -38.5179 0 0 0 -7.39109 -31.3964 -37.6396 
14.9042 12.285 -35.9408 13.4889 6.63758 -174.434 11.8742 7.21282 15.8334 2.34802 1.42057 -4.71755 -16.6064 45.069 -3.76019 0.844396 -8.27012 -25.3279 -14.7752 43.2977 7.45248 20.8737 29.4716 6.47716 1.15224 0.772016 -10.748 0 0 0 -144.683 -43.6156 170.51 -13.0929 -24.457 -10.9823 27.3172 -26.6544 -4.16733 0 0 0 -155.198 -10.8327 -115.666 -5.25755 -2.77867 -1.12302 -38.2361 -11.2234 -43.5748 0 0 0 -8.1006 -29.254 -42.6256 
17.2522 14.0278 -36.5209 11.7145 7.51967 -166.625 12.4163 8.38643 17.5291 2.27253 1.81908 -4.61873 -17.1862 45.7805 -3.69628 2.90665 -1.49091 -26.3159 -12.4898 33.9574 6.51193 21.7961 32.3961 5.82135 -2.3901 -0.325579 -10.9354 0 0 0 -145.164 -44.1208 169.642 -12.4294 -24.413 -10.3731 28.8167 -26.4445 -3.72268 0 0 0 -154.536 -6.23604 -114.479 -5.5625 -0.896227 -1.12534 -39.2992 -14.7711 -47.1196 0 0 0 -8.87873 -26.7043 -46.684 
19.6278 15.4868 -37.0684 9.86927 8.35374 -158.96 12.6581 9.65593 18.4554 2.46939 2.73506 -4.5524 -16.5749 46.077 -4.34993 4.95547 4.90926 -27.2043 -10.741 25.2289 6.07418 22.7567 34.9011 4.68957 -5.72928 -1.05768 -10.4456 0 0 0 -146.485 -45.1926 168.731 -11.9827 -24.7317 -9.37512 30.2626 -26.286 -3.25499 0 0 0 -154.536 -2.02078 -113.387 -5.36953 -0.462193 -0.31321 -40.0573 -18.8512 -49.4488 0 0 0 -9.30878 -23.7602 -50.1427 
21.6368 16.2954 -37.5304 8.27246 9.37034 -152.821 12.3973 10.8917 16.2672 3.01638 4.02435 -4.83996 -16.9401 45.1974 -4.52167 6.79726 8.16186 -25.9275 -9.69351 20.1778 6.25402 22.3074 35.5016 3.05982 -8.14634 -1.09257 -9.93402 0 0 0 -149.307 -48.5034 168.278 -12.4787 -25.4817 -9.63036 31.4744 -26.1879 -3.77118 0 0 0 -155.552 -0.153732 -112.1 -5.19879 -1.53313 -0.545495 -37.9217 -24.6079 -49.3443 0 0 0 -9.30058 -20.8045 -51.4508 
23.8617 17.0061 -38.005 6.62315 10.0841 -146.076 12.2428 11.9062 13.5747 3.51511 5.56452 -5.1009 -17.4059 44.3647 -4.35803 8.41385 10.7418 -25.2806 -8.916 16.1513 6.75415 21.6647 35.5662 1.08713 -10.412 -0.879455 -10.0291 0 0 0 -154.258 -52.2954 164.958 -12.9245 -26.0961 -9.87451 32.4871 -25.8361 -4.20106 0 0 0 -157.011 1.56761 -110.735 -4.75376 -3.25237 -0.256613 -34.1623 -30.9571 -49.246 0 0 0 -9.3316 -18.0255 -52.4005 
26.0566 17.0388 -38.4094 5.36755 9.87348 -140.228 11.8412 11.7661 12.5489 4.0023 7.41896 -5.13349 -16.3906 43.9985 -5.4994 9.68096 12.011 -25.5239 -8.91666 13.052 7.58475 21.5416 35.8958 -0.198375 -11.7775 -0.854565 -9.24104 0 0 0 -162.806 -55.7867 157.792 -13.5506 -26.3433 -10.6283 33.2143 -25.1628 -3.32957 0 0 0 -159.41 3.15973 -109.877 -3.78645 -6.67885 -0.21365 -29.2971 -35.6736 -48.8608 0 0 0 -9.62891 -15.3859 -52.4571 
27.8345 16.4361 -38.6956 4.66373 9.33739 -135.747 11.2409 10.91 11.8344 4.48297 8.91165 -5.29328 -15.6627 43.7457 -6.23541 9.43226 11.8235 -28.1674 -9.35312 11.9203 8.40992 19.9966 37.2044 1.90864 -11.6952 -0.853526 -8.71727 0 0 0 -173.023 -58.0285 148.472 -14.527 -26.9982 -11.0621 32.8409 -24.1086 -3.94849 0 0 0 -161.896 3.66811 -109.469 -2.30328 -10.8815 -0.653552 -22.1296 -40.141 -46.9022 0 0 0 -9.96313 -13.1155 -51.389 
29.5748 15.4818 -38.9543 4.18862 8.63397 -131.654 10.3024 9.77987 11.0065 4.93504 10.1656 -5.3867 -15.8636 43.0228 -6.20757 8.22274 11.0103 -30.0617 -9.49282 11.1681 9.00348 18.3838 37.1233 2.06516 -11.2491 -0.584702 -8.50315 0 0 0 174.777 -58.6315 136.728 -15.8804 -27.942 -11.7318 32.1155 -22.9954 -4.35571 0 0 0 -163.965 3.95464 -109.232 -0.733635 -15.9375 -0.882837 -14.7556 -42.4855 -44.0104 0 0 0 -10.0641 -11.0257 -50.1208 
